<svg version="1.1" xmlns="http://www.w3.org/2000/svg" viewBox="-110.1188465267831 -87.38195864013736 299.5490423686929 163.76341845443594" fill="none" stroke="black" stroke-width="0.6%" vector-effect="non-scaling-stroke">
    <path d="M -19.2626 49.13938 L 77.47088 53.73558 A 5 0.71254 180 0 0 83.687 53.32699 L 83.79566 53.28499 L 93.28456 49.22925 L 93.44537 49.14275 A 5 0.71254 180 0 0 93.54126 49.00387" />
    <path d="M 77.47088 43.83764 L 1.57805 40.23166 L 14.22991 34.824 L 49.81326 19.61496 L 49.81326 9.71702 L 49.81326 -0.18092 L 49.81326 -10.07885 L -80.65903 45.68765" />
    <path d="M -89.40369 35.90875 L -102.7746 35.27344" />
    <path d="M -106.09723 34.45861 A 5 0.71254 180 0 0 -106.19311 34.59749 A 5 0.71254 180 0 0 -102.7746 35.27344" />
    <path d="M -105.93642 34.37211 L -106.09723 34.45861" />
    <path d="M -96.44752 30.31637 L -105.93642 34.37211" />
    <path d="M -96.33886 30.27437 L -96.44752 30.31637" />
    <path d="M -90.12274 29.86578 A 5 0.71254 180 0 0 -96.33886 30.27437" />
    <path d="M 90.12274 38.42998 L 14.22991 34.824" />
    <path d="M -76.75183 30.50109 L -90.12274 29.86578" />
    <path d="M 93.44537 49.14275 L 93.44537 39.24481 A 5 0.71254 180 0 0 93.54126 39.10594 A 5 0.71254 180 0 0 90.12274 38.42998" />
    <path d="M 93.28456 49.22925 L 93.28456 39.33131 L 93.44537 39.24481" />
    <path d="M 83.79566 53.28499 L 83.79566 43.38706 L 93.28456 39.33131" />
    <path d="M 83.687 53.32699 L 83.687 43.42906 L 83.79566 43.38706" />
    <path d="M 77.47088 43.83764 A 5 0.71254 180 0 0 83.687 43.42906" />
    <path d="M -80.65903 75.38146 L 1.57805 40.23166" />
    <path d="M -109.11885 74.02922 L -80.65903 75.38146 L -80.65903 65.48352 L -85.40234 65.25815 L 49.81326 7.46426" />
    <path d="M 59.29986 20.0657 L 49.81326 19.61496" />
    <path d="M 105.95359 0.12495 L 59.29986 20.0657 L 59.29986 -24.1233 L 70.48263 -63.89753 L 60.99603 -64.34828 L 75.11698 -70.38386" />
    <path d="M 49.81326 9.71702 L -80.65903 65.48352" />
    <path d="M -109.11885 74.02922 L -109.11885 64.13128 L -104.37554 62.1039" />
    <path d="M -104.37554 64.35665 L -109.11885 64.13128" />
    <path d="M -104.37554 64.35665 L -104.37554 54.45872" />
    <path d="M -109.11885 54.23334 L -104.37554 54.45872" />
    <path d="M -109.11885 54.23334 L -109.11885 44.33541 L 21.35345 -11.4311 L 49.81326 -23.5954" />
    <path d="M -109.11885 44.33541 L -80.65903 45.68765" />
    <path d="M -80.65903 55.58559 L -80.65903 45.68765" />
    <path d="M -85.40234 55.36021 L -80.65903 55.58559 L 49.81326 -0.18092" />
    <path d="M -85.40234 65.25815 L -85.40234 55.36021" />
    <path d="M 59.29986 -24.1233 L 49.81326 -24.57405 L 60.99603 -64.34828" />
    <path d="M 49.81326 -10.07885 L 49.81326 -24.57405" />
    <path d="M 70.48263 -63.89753 L 84.60358 -69.93311 L 75.11698 -70.38386" />
    <path d="M 117.81471 -4.94473 L 105.95359 0.12495" />
    <path d="M 117.81471 -84.12822 L 117.81471 -4.94473" />
    <path d="M 105.16285 -78.72056 L 117.81471 -84.12822 L 108.3281 -84.57897" />
    <path d="M 105.16285 -38.63392 L 105.16285 -78.72056 L 95.67625 -79.17131 L 108.3281 -84.57897" />
    <path d="M 104.56998 -36.40483 A 2 0.62614 272.72031 0 0 105.16285 -38.63392 L 95.67625 -39.08466 L 95.67625 -79.17131" />
    <path d="M 104.53026 -36.38395 L 104.56998 -36.40483 L 95.08337 -36.85558 A 2 0.62614 272.72031 0 0 95.67625 -39.08466" />
    <path d="M 85.23617 -28.13726 L 104.53026 -36.38395 L 95.04365 -36.83469 L 95.08337 -36.85558" />
    <path d="M 85.15689 -28.11899 L 85.23617 -28.13726 L 85.04848 -28.14618" />
    <path d="M 84.60358 -29.84647 A 2 0.62614 272.72031 0 0 85.14125 -28.1191 A 2 0.62614 272.72031 0 0 85.15689 -28.11899 L 85.12567 -28.12047" />
    <path d="M 84.60358 -69.93311 L 84.60358 -29.84647" />
    <path d="M 5.48525 -4.64871 L -7.88566 -5.28401" />
    <path d="M 172.35982 3.28018 L 105.95359 0.12495" />
    <path d="M 85.11295 9.03267 L 172.35982 13.17812 L 172.35982 3.28018 A 5 0.71254 180 0 0 178.57594 2.8716 L 178.6846 2.8296 L 188.1735 -1.22614 L 188.33431 -1.31264 A 5 0.71254 180 0 0 188.43019 -1.45152 L 188.43019 8.44642" />
    <path d="M 21.35345 -25.92629 L 11.86684 -26.37704 L 23.04961 -66.15127 L 37.17056 -72.18685" />
    <path d="M 21.35345 -11.4311 L 21.35345 -25.92629 L 32.53622 -65.70052 L 23.04961 -66.15127" />
    <path d="M 11.86684 -7.37633 L 11.86684 -26.37704" />
    <path d="M 93.48836 -36.16993 L 84.60358 -36.59208" />
    <path d="M 46.65716 -34.17538 L 53.31252 -37.02002" />
    <path d="M 57.72983 -52.73126 L 57.72983 -80.9743 L 70.38169 -86.38196" />
    <path d="M 84.60358 -32.37239 L 95.04365 -36.83469" />
    <path d="M 188.43019 -1.45152 A 5 0.71254 180 0 0 185.01168 -2.12748 L 117.81471 -5.32028" />
    <path d="M -11.20829 -6.09885 A 5 0.71254 180 0 0 -11.30417 -5.95997 L -11.30417 2.52743" />
    <path d="M -11.30417 -5.95997 A 5 0.71254 180 0 0 -7.88566 -5.28401" />
    <path d="M 4.7662 -10.69167 A 5 0.71254 180 0 0 -1.44992 -10.28309 L -1.55858 -10.24109 L -11.04748 -6.18534 L -11.20829 -6.09885" />
    <path d="M 11.86684 -10.35429 L 4.7662 -10.69167" />
    <path d="M 178.57594 12.76954 L 178.57594 2.8716" />
    <path d="M 172.35982 13.17812 A 5 0.71254 180 0 0 178.57594 12.76954 L 178.6846 12.72754 L 178.6846 2.8296" />
    <path d="M 188.33431 8.58529 A 5 0.71254 180 0 0 188.43019 8.44642" />
    <path d="M 188.1735 8.67179 L 188.33431 8.58529 L 188.33431 -1.31264" />
    <path d="M 178.6846 12.72754 L 188.1735 8.67179 L 188.1735 -1.22614" />
    <path d="M 32.53622 -65.70052 L 46.65716 -71.7361 L 37.17056 -72.18685" />
    <path d="M 46.65716 -71.7361 L 46.65716 -31.64946 A 2 0.62614 272.72031 0 0 47.19484 -29.92209 A 2 0.62614 272.72031 0 0 47.21047 -29.92197 L 47.17926 -29.92346" />
    <path d="M 47.21047 -29.92197 L 47.28976 -29.94025 L 47.10206 -29.94917" />
    <path d="M 47.28976 -29.94025 L 51.87275 -31.89912" />
    <path d="M 67.21643 -67.00701 L 67.21643 -80.52355 L 57.72983 -80.9743" />
    <path d="M 67.21643 -80.52355 L 79.86829 -85.93121 L 70.38169 -86.38196" />
    <path d="M 79.86829 -85.93121 L 79.86829 -70.1581" />
    <path d="M -102.7746 41.62375 L -102.7746 35.27344" />
    <path d="M 77.47088 53.73558 L 77.47088 43.83764" />
    <path d="M -7.88566 1.06629 L -7.88566 -5.28401" />
    <path d="M -106.19311 34.59749 L -106.19311 43.08489" />
    <path d="M 93.54126 39.10594 L 93.54126 49.00387" />
</svg>