<svg version="1.1" xmlns="http://www.w3.org/2000/svg" viewBox="-110.467305292677 -39.11248867590918 300.5341847604234 68.4442383124299" fill="none" stroke="black" stroke-width="0.6%" vector-effect="non-scaling-stroke">
    <path d="M -41.29549 20.6063 L 81.1981 23.09286 A 5 0.31457 180 0 0 87.38609 22.90869 L 87.49189 22.89009 L 96.70402 21.09388 L 96.85893 21.0556 A 5 0.31457 180 0 0 96.94558 20.99729" />
    <path d="M 81.1981 13.11267 L 5.06317 11.56717 L 10.501 10.50688 L 10.501 9.10966" />
    <path d="M 93.48094 10.71773 L 21.46302 9.2558" />
    <path d="M 96.85893 21.0556 L 96.85893 11.07541 A 5 0.31457 180 0 0 96.94558 11.0171 A 5 0.31457 180 0 0 93.48094 10.71773" />
    <path d="M 96.70402 21.09388 L 96.70402 11.11369 L 96.85893 11.07541" />
    <path d="M 87.49189 22.89009 L 87.49189 12.9099 L 96.70402 11.11369" />
    <path d="M 87.38609 22.90869 L 87.38609 12.9285 L 87.49189 12.9099" />
    <path d="M 81.1981 13.11267 A 5 0.31457 180 0 0 87.38609 12.9285" />
    <path d="M 21.46302 10.46629 A 5.5 0.34602 0 0 1 10.501 10.50688" />
    <path d="M -80.91671 28.33175 L 5.06317 11.56717" />
    <path d="M -109.4673 27.75219 L -80.91671 28.33175 L -80.91671 18.35156 L -85.67514 18.25496 L 98.56745 -17.66914 L 98.56745 -26.62492" />
    <path d="M 19.28858 8.79346 L 97.18446 -6.39488 L 102.6223 -7.45517 L 102.6223 -8.85239" />
    <path d="M 11.90818 8.83528 L 10.501 9.10966" />
    <path d="M 103.32588 -8.98958 L 102.6223 -8.85239" />
    <path d="M 103.32588 -8.98958 L 103.32588 -17.57254" />
    <path d="M -80.91671 18.35156 L 103.32588 -17.57254" />
    <path d="M 11.90818 8.83528 A 5.5 0.34602 360 0 1 21.46302 9.06906 A 5.5 0.34602 360 0 1 10.501 9.10966" />
    <path d="M -109.4673 27.75219 L -109.4673 17.772" />
    <path d="M -104.70887 16.84418 L -109.4673 17.772" />
    <path d="M -104.70887 17.86859 L -109.4673 17.772" />
    <path d="M -104.70887 17.86859 L -104.70887 7.8884" />
    <path d="M -109.4673 7.79181 L -104.70887 7.8884" />
    <path d="M -109.4673 7.79181 L -109.4673 -2.18838 L -80.91671 -1.60882 L 103.32588 -37.53292 L 74.77529 -38.11249 L -109.4673 -2.18838" />
    <path d="M -80.91671 8.37137 L -80.91671 -1.60882" />
    <path d="M -85.67514 8.27477 L -80.91671 8.37137 L 103.32588 -27.55273 L 103.32588 -37.53292" />
    <path d="M -85.67514 18.25496 L -85.67514 8.27477" />
    <path d="M 173.31939 -4.84938 L 97.18446 -6.39488" />
    <path d="M 50.82581 2.64425 L 173.31939 5.13081 L 173.31939 -4.84938 A 5 0.31457 180 0 0 179.50739 -5.03355 L 179.61318 -5.05216 L 188.82531 -6.84836 L 188.98022 -6.88664 A 5 0.31457 180 0 0 189.06688 -6.94496 L 189.06688 3.03524" />
    <path d="M 185.60223 -7.24432 L 113.58432 -8.70625" />
    <path d="M 189.06688 -6.94496 A 5 0.31457 180 0 0 185.60223 -7.24432" />
    <path d="M 113.58432 -7.49576 A 5.5 0.34602 0 0 1 102.6223 -7.45517" />
    <path d="M 103.32588 -9.06651 A 5.5 0.34602 0 0 1 113.58432 -8.89299 A 5.5 0.34602 0 0 1 102.6223 -8.85239" />
    <path d="M 98.56745 -17.66914 L 103.32588 -17.57254" />
    <path d="M 179.50739 4.94664 L 179.50739 -5.03355" />
    <path d="M 173.31939 5.13081 A 5 0.31457 180 0 0 179.50739 4.94664 L 179.61318 4.92803 L 179.61318 -5.05216" />
    <path d="M 188.98022 3.09355 A 5 0.31457 180 0 0 189.06688 3.03524" />
    <path d="M 188.82531 3.13183 L 188.98022 3.09355 L 188.98022 -6.88664" />
    <path d="M 179.61318 4.92803 L 188.82531 3.13183 L 188.82531 -6.84836" />
    <path d="M 81.1981 23.09286 L 81.1981 13.11267" />
    <path d="M 96.94558 11.0171 L 96.94558 20.99729" />
    <path d="M 21.46302 10.46629 L 21.46302 9.06906" />
    <path d="M 113.58432 -7.49576 L 113.58432 -8.89299" />
</svg>