<svg version="1.1" xmlns="http://www.w3.org/2000/svg" viewBox="-110.467305292677 -86.78573564485993 300.5341847604234 163.43182476854219" fill="none" stroke="black" stroke-width="0.6%" vector-effect="non-scaling-stroke">
    <path d="M -15.84395 47.72765 L 81.1981 52.06218 A 5 0.69216 180 0 0 87.38609 51.65694 L 87.49189 51.616 L 96.70402 47.66368 L 96.85893 47.57944 A 5 0.69216 180 0 0 96.94558 47.45114" />
    <path d="M 81.1981 42.15846 L 5.06317 38.75778 L 17.34601 33.48802 L 56.64993 16.62529" />
    <path d="M -86.2088 34.68098 L -99.62236 34.08185" />
    <path d="M -103.00035 33.29482 A 5 0.69216 180 0 0 -103.087 33.42313 A 5 0.69216 180 0 0 -99.62236 34.08185" />
    <path d="M -102.84544 33.21058 L -103.00035 33.29482" />
    <path d="M -93.63331 29.25826 L -102.84544 33.21058" />
    <path d="M -93.52751 29.21732 L -93.63331 29.25826" />
    <path d="M -87.33952 28.81209 A 5 0.69216 180 0 0 -93.52751 29.21732" />
    <path d="M 93.48094 36.8887 L 17.34601 33.48802" />
    <path d="M -73.92596 29.41122 L -87.33952 28.81209" />
    <path d="M 96.85893 47.57944 L 96.85893 37.67572 A 5 0.69216 180 0 0 96.94558 37.54742 A 5 0.69216 180 0 0 93.48094 36.8887" />
    <path d="M 96.70402 47.66368 L 96.70402 37.75996 L 96.85893 37.67572" />
    <path d="M 87.49189 51.616 L 87.49189 41.71228 L 96.70402 37.75996" />
    <path d="M 87.38609 51.65694 L 87.38609 41.75322 L 87.49189 41.71228" />
    <path d="M 81.1981 42.15846 A 5 0.69216 180 0 0 87.38609 41.75322" />
    <path d="M -80.91671 75.64609 L 5.06317 38.75778" />
    <path d="M -109.4673 74.37083 L -80.91671 75.64609 L -80.91671 65.74237 L -85.67514 65.52983 L 56.64993 4.4675" />
    <path d="M -80.91671 65.74237 L 56.64993 6.72157" />
    <path d="M -109.4673 74.37083 L -109.4673 64.46711" />
    <path d="M -104.70887 64.67966 L -109.4673 64.46711" />
    <path d="M -104.70887 64.67966 L -104.70887 54.77594" />
    <path d="M -109.4673 54.5634 L -104.70887 54.77594" />
    <path d="M -109.4673 54.5634 L -109.4673 44.65968 L -80.91671 45.93493 L 56.64993 -13.08587" />
    <path d="M -80.91671 55.83865 L -80.91671 45.93493" />
    <path d="M -85.67514 55.62611 L -80.91671 55.83865 L 56.64993 -3.18215" />
    <path d="M -85.67514 65.52983 L -85.67514 55.62611" />
    <path d="M -104.70887 62.42558 L -109.4673 64.46711" />
    <path d="M 5.9125 -4.84221 L -7.50106 -5.44134" />
    <path d="M 173.31939 2.63527 L 111.45976 -0.12778 L 66.16679 19.30445 L 66.16679 -24.91037 L 56.64993 -25.33545 L 67.50653 -65.00824 L 81.21561 -70.88991" />
    <path d="M 90.55264 8.84209 L 173.31939 12.53899 A 5 0.69216 180 0 0 179.50739 12.13375 L 179.61318 12.09281 L 179.61318 2.18909 L 188.82531 -1.76323 L 188.98022 -1.84747 A 5 0.69216 180 0 0 189.06688 -1.97577 L 189.06688 7.92795" />
    <path d="M 185.60223 -2.63449 L 122.97493 -5.43183" />
    <path d="M 18.19533 -10.11197 L 4.78178 -10.7111 A 5 0.69216 180 0 0 -1.40622 -10.30587 L -1.51201 -10.26493 L -10.72414 -6.31261 L -10.87905 -6.22837 A 5 0.69216 180 0 0 -10.96571 -6.10006 L -10.96571 2.39912" />
    <path d="M 189.06688 -1.97577 A 5 0.69216 180 0 0 185.60223 -2.63449" />
    <path d="M 179.50739 2.23003 L 179.61318 2.18909" />
    <path d="M 173.31939 2.63527 A 5 0.69216 180 0 0 179.50739 2.23003" />
    <path d="M 122.97493 -5.06818 L 111.45976 -0.12778" />
    <path d="M -10.96571 -6.10006 A 5 0.69216 180 0 0 -7.50106 -5.44134" />
    <path d="M 32.85776 -16.40265 L -109.4673 44.65968" />
    <path d="M 42.37463 -11.46942 L 32.85776 -11.8945 L 32.85776 -26.39817 L 43.71436 -66.07095 L 57.42344 -71.95262" />
    <path d="M 56.64993 -17.59401 L 42.37463 -11.46942 L 42.37463 -25.97308 L 32.85776 -26.39817" />
    <path d="M 66.16679 19.30445 L 56.64993 18.87937 L 56.64993 -25.33545" />
    <path d="M 179.50739 12.13375 L 179.50739 2.23003" />
    <path d="M 188.98022 8.05625 A 5 0.69216 180 0 0 189.06688 7.92795" />
    <path d="M 188.82531 8.14049 L 188.98022 8.05625 L 188.98022 -1.84747" />
    <path d="M 179.61318 12.09281 L 188.82531 8.14049 L 188.82531 -1.76323" />
    <path d="M 53.23123 -65.64587 L 66.94031 -71.52753 L 57.42344 -71.95262" />
    <path d="M 66.94031 -71.52753 L 66.94031 -62.93913" />
    <path d="M 86.89992 -70.63601 L 86.89992 -80.09089 L 77.38306 -80.51598 L 89.66589 -85.78573" />
    <path d="M 86.89992 -80.09089 L 99.18276 -85.36065 L 89.66589 -85.78573" />
    <path d="M 99.18276 -85.36065 L 99.18276 -36.50762" />
    <path d="M 42.37463 -25.97308 L 53.23123 -65.64587 L 43.71436 -66.07095" />
    <path d="M 77.02339 -64.58316 L 90.73247 -70.46482 L 81.21561 -70.88991" />
    <path d="M 66.16679 -24.91037 L 77.02339 -64.58316 L 67.50653 -65.00824" />
    <path d="M 122.97493 -84.29794 L 122.97493 -5.06818" />
    <path d="M 110.69209 -79.02818 L 122.97493 -84.29794 L 113.45806 -84.72302" />
    <path d="M 110.69209 -38.91812 L 110.69209 -79.02818 L 101.17522 -79.45326 L 113.45806 -84.72302" />
    <path d="M 110.11651 -36.69434 A 2 0.60823 272.5575 0 0 110.69209 -38.91812 L 101.17522 -39.3432 L 101.17522 -79.45326" />
    <path d="M 110.07794 -36.67388 L 110.11651 -36.69434 L 100.59964 -37.11942 A 2 0.60823 272.5575 0 0 101.17522 -39.3432" />
    <path d="M 91.34661 -28.6375 L 110.07794 -36.67388 L 100.56108 -37.09897 L 100.59964 -37.11942" />
    <path d="M 91.26964 -28.6201 L 91.34661 -28.6375 L 91.17002 -28.64539" />
    <path d="M 90.73247 -30.35476 A 2 0.60823 272.5575 0 0 91.25737 -28.62024 A 2 0.60823 272.5575 0 0 91.26964 -28.6201 L 91.24514 -28.62119" />
    <path d="M 90.73247 -70.46482 L 90.73247 -30.35476" />
    <path d="M 90.73247 -32.88216 L 100.56108 -37.09897" />
    <path d="M 77.38306 -69.24561 L 77.38306 -80.51598" />
    <path d="M -99.62236 40.43586 L -99.62236 34.08185" />
    <path d="M 81.1981 52.06218 L 81.1981 42.15846" />
    <path d="M -7.50106 0.91267 L -7.50106 -5.44134" />
    <path d="M 173.31939 12.53899 L 173.31939 2.63527" />
    <path d="M -103.087 33.42313 L -103.087 41.92231" />
    <path d="M 96.94558 37.54742 L 96.94558 47.45114" />
</svg>