<svg version="1.1" xmlns="http://www.w3.org/2000/svg" viewBox="-258.88898747758185 -88.39969066130085 487.03900693378387 151.8585777574788" fill="none" stroke="black" stroke-width="0.6%" vector-effect="non-scaling-stroke">
    <path d="M 16.58032 36.69148 L 16.58032 17.85802 L 169.52952 -27.93749 L -104.93979 -43.93717 L -257.88899 1.85834 L -171.13061 12.85332 L -103.37573 16.80297 L 16.58032 17.85802" />
    <path d="M 169.52952 -9.10403 L 169.52952 -27.93749" />
    <path d="M 16.58032 36.69148 L 169.52952 -9.10403" />
    <path d="M -103.37573 35.63642 L -103.37573 16.80297" />
    <path d="M -103.37573 35.63642 L 16.58032 36.69148" />
    <path d="M -171.13061 31.68678 L -103.37573 35.63642" />
    <path d="M -257.88899 20.6918 L -171.13061 31.68678 L -171.13061 12.85332" />
    <path d="M -91.23484 37.28153 L -86.24373 35.78711" />
    <path d="M -91.23484 37.28153 L -91.23484 35.74321" />
    <path d="M 70.94442 -33.68433 L 75.28555 -34.98413" />
    <path d="M 108.81603 -45.02371 L 117.67255 -47.6755" />
    <path d="M 117.44176 -37.78837 L 108.81603 -35.20568" />
    <path d="M -118.68177 35.68156 L -118.68177 34.74419" />
    <path d="M -257.88899 20.6918 L -257.88899 1.85834" />
    <path d="M -118.68177 35.68156 L -114.10728 35.94822 L -114.10728 50.51937 L -115.93708 50.4127 L -114.10728 49.86483" />
    <path d="M -95.80933 37.01487 L -91.23484 37.28153" />
    <path d="M -95.80933 51.58601 L -95.80933 37.01487" />
    <path d="M -93.97953 51.69268 L -95.80933 51.58601 L -93.97953 51.03814" />
    <path d="M -93.97953 49.71021 L -93.97953 51.69268" />
    <path d="M -93.97953 49.71021 L -91.23484 49.87021" />
    <path d="M -91.23484 62.45889 L -91.23484 49.87021" />
    <path d="M -118.68177 60.85892 L -91.23484 62.45889" />
    <path d="M -118.68177 60.85892 L -118.68177 48.27024 L -115.93708 48.43024 L -114.10728 47.88236" />
    <path d="M -115.93708 50.4127 L -115.93708 48.43024" />
    <path d="M 75.28555 -66.69883 L 92.6686 -65.68552 L 92.6686 -32.41796" />
    <path d="M 75.28555 -66.69883 L 75.28555 -33.43127" />
    <path d="M 47.83862 -68.2988 L 47.83862 -35.03124" />
    <path d="M 63.98605 -73.13361 L 47.83862 -68.2988" />
    <path d="M 63.98605 -34.08995 L 63.98605 -73.13361" />
    <path d="M 117.67255 -66.0667 L 108.24804 -86.38638 L 90.22562 -80.99017 L 90.22562 -71.17214" />
    <path d="M 224.16845 -5.79664 L 169.18757 -9.00165" />
    <path d="M 117.67255 -39.2452 A 2 0.80029 93.33618 0 1 117.44176 -37.78837 A 2 0.80029 93.33618 0 1 116.96637 -37.06692 L 134.34943 -36.05361 L 134.24824 -36.00768 L 117.43704 -30.97413" />
    <path d="M 117.67255 -79.3902 L 117.67255 -39.2452 L 135.05561 -38.23189 A 2 0.80029 93.33618 0 1 134.34943 -36.05361" />
    <path d="M 135.69497 -84.78641 L 117.67255 -79.3902 L 135.05561 -78.37689 L 135.05561 -38.23189" />
    <path d="M 116.86518 -37.02099 L 108.81603 -34.61094" />
    <path d="M 116.96637 -37.06692 L 116.86518 -37.02099 L 134.24824 -36.00768" />
    <path d="M 91.43298 -71.53364 L 75.28555 -66.69883" />
    <path d="M 30.45556 -69.31211 L 47.83862 -68.2988" />
    <path d="M 30.45556 -69.31211 L 30.45556 -36.04455" />
    <path d="M -93.97953 49.71021 L -48.58496 36.11833" />
    <path d="M -45.39948 36.14634 L -91.23484 49.87021" />
    <path d="M -4.55523 36.50558 L -91.23484 62.45889" />
    <path d="M -114.10728 46.90056 L -118.68177 48.27024" />
    <path d="M 91.43298 -71.53364 L 108.81603 -70.52033 L 92.6686 -65.68552" />
    <path d="M 153.07803 -83.7731 L 135.05561 -78.37689" />
    <path d="M 108.81603 -31.47667 L 108.81603 -70.52033" />
    <path d="M 167.35047 -28.06451 L 167.35047 -53.00107 L 153.07803 -83.7731" />
    <path d="M 46.60299 -74.14692 L 63.98605 -73.13361" />
    <path d="M 46.60299 -74.14692 L 30.45556 -69.31211" />
    <path d="M 72.13639 -39.6802 L 75.28555 -39.49663" />
    <path d="M 72.84257 -41.85848 A 2 0.80029 93.33618 0 1 72.13639 -39.6802 L 72.0352 -39.63427 L 63.98605 -37.22422" />
    <path d="M 72.0352 -39.63427 L 75.28555 -39.4448" />
    <path d="M 90.86498 -87.39969 L 108.24804 -86.38638" />
    <path d="M 72.84257 -82.00348 L 90.22562 -80.99017" />
    <path d="M 72.84257 -82.00348 L 72.84257 -41.85848 L 75.28555 -41.71607" />
    <path d="M 90.86498 -87.39969 L 72.84257 -82.00348" />
    <path d="M 100.39001 11.59748 L 208.02102 17.87163 L 208.02102 -0.96183 A 5 0.66057 180 0 0 214.47817 -1.2621 L 214.61393 -1.29952 L 226.72451 -4.92563 L 226.94141 -5.00347 A 5 0.66057 180 0 0 227.15002 -5.19229 L 227.15002 13.64117" />
    <path d="M 226.94141 13.82998 A 5 0.66057 180 0 0 227.15002 13.64117" />
    <path d="M 226.72451 13.90783 L 226.94141 13.82998 L 226.94141 -5.00347" />
    <path d="M 214.61393 17.53394 L 226.72451 13.90783 L 226.72451 -4.92563" />
    <path d="M 214.47817 17.57136 L 214.61393 17.53394 L 214.61393 -1.29952" />
    <path d="M 208.02102 17.87163 A 5 0.66057 180 0 0 214.47817 17.57136 L 214.47817 -1.2621" />
    <path d="M 227.15002 -5.19229 A 5 0.66057 180 0 0 224.16845 -5.79664" />
    <path d="M 208.02102 -0.96183 L 153.04014 -4.16684" />
    <path d="M 135.69497 -84.78641 L 153.07803 -83.7731" />
    <path d="M 103.06271 30.46441 L 48.08183 27.25941" />
    <path d="M 105.83568 31.25758 A 5 0.66057 180 0 0 106.04428 31.06877 L 106.04428 49.90222" />
    <path d="M 106.04428 31.06877 A 5 0.66057 180 0 0 103.06271 30.46441" />
    <path d="M 105.61877 31.33543 L 105.83568 31.25758" />
    <path d="M 93.5082 34.96153 L 105.61877 31.33543" />
    <path d="M 93.37243 34.99895 L 93.5082 34.96153" />
    <path d="M 86.91528 35.29922 A 5 0.66057 180 0 0 93.37243 34.99895" />
    <path d="M 86.91528 35.29922 L 31.9344 32.09421" />
    <path d="M -38.92666 46.79696 L 86.91528 54.13268 L 86.91528 35.29922" />
    <path d="M 105.83568 50.09104 L 105.83568 31.25758" />
    <path d="M 105.83568 50.09104 A 5 0.66057 180 0 0 106.04428 49.90222" />
    <path d="M 105.61877 50.16888 L 105.61877 31.33543" />
    <path d="M 105.61877 50.16888 L 105.83568 50.09104" />
    <path d="M 93.5082 53.79499 L 93.5082 34.96153" />
    <path d="M 93.5082 53.79499 L 105.61877 50.16888" />
    <path d="M 93.37243 53.83241 L 93.37243 34.99895" />
    <path d="M 93.37243 53.83241 L 93.5082 53.79499" />
    <path d="M 86.91528 54.13268 A 5 0.66057 180 0 0 93.37243 53.83241" />
</svg>