<svg version="1.1" xmlns="http://www.w3.org/2000/svg" viewBox="-258.88898747758185 -88.39969066130085 487.03900693378387 151.8585777574788" fill="none" stroke="black" stroke-width="0.6%" vector-effect="non-scaling-stroke">
    <path d="M 16.58032 17.85802 L 16.58032 -0.97544 L 169.52952 -46.77095 L -104.93979 -62.77063 L -257.88899 -16.97512 L -171.13061 -5.98014 L -103.37573 -2.03049 L 16.58032 -0.97544" />
    <path d="M 169.52952 -27.93749 L 169.52952 -46.77095" />
    <path d="M 16.58032 17.85802 L 169.52952 -27.93749" />
    <path d="M -257.88899 1.85834 L -257.88899 -16.97512" />
    <path d="M -171.13061 12.85332 L -171.13061 -5.98014" />
    <path d="M -257.88899 1.85834 L -171.13061 12.85332 L -103.37573 16.80297 L 16.58032 17.85802" />
    <path d="M -103.37573 16.80297 L -103.37573 -2.03049" />
    <path d="M -38.92666 46.79696 L 86.91528 54.13268 A 5 0.66057 180 0 0 93.37243 53.83241 L 93.37243 34.99895 L 93.5082 34.96153 L 105.61877 31.33543 L 105.83568 31.25758 A 5 0.66057 180 0 0 106.04428 31.06877 A 5 0.66057 180 0 0 103.06271 30.46441 L 29.8709 26.19783 L 75.28555 12.59994 L 92.6686 13.61325 L 152.21226 -4.2151 L 167.35047 -8.74773 L 167.35047 -27.28505" />
    <path d="M 105.83568 50.09104 A 5 0.66057 180 0 0 106.04428 49.90222" />
    <path d="M 105.61877 50.16888 L 105.83568 50.09104 L 105.83568 31.25758" />
    <path d="M 93.5082 53.79499 L 105.61877 50.16888 L 105.61877 31.33543" />
    <path d="M 93.37243 53.83241 L 93.5082 53.79499 L 93.5082 34.96153" />
    <path d="M 86.91528 35.29922 L 13.72347 31.03264 L 29.8709 26.19783" />
    <path d="M 86.91528 35.29922 A 5 0.66057 180 0 0 93.37243 34.99895" />
    <path d="M -91.23484 62.45889 L 13.72347 31.03264" />
    <path d="M -118.68177 60.85892 L -91.23484 62.45889 L -91.23484 49.87021 L -95.80933 49.60355 L 10.39695 17.80363" />
    <path d="M 75.28555 0.28071 L 75.28555 12.59994" />
    <path d="M 15.70609 17.85033 L -91.23484 49.87021" />
    <path d="M -118.68177 60.85892 L -118.68177 48.27024 L -114.10728 46.90056" />
    <path d="M -114.10728 48.5369 L -118.68177 48.27024" />
    <path d="M -114.10728 48.5369 L -114.10728 35.94822" />
    <path d="M -118.68177 35.68156 L -114.10728 35.94822" />
    <path d="M -118.68177 35.68156 L -118.68177 23.09288 L -97.83722 16.85168" />
    <path d="M -118.68177 23.09288 L -91.23484 24.69285" />
    <path d="M -91.23484 37.28153 L -91.23484 24.69285" />
    <path d="M -95.80933 37.01487 L -91.23484 37.28153 L -25.13816 17.49109" />
    <path d="M -95.80933 49.60355 L -95.80933 37.01487" />
    <path d="M 75.28555 -66.69883 L 92.6686 -65.68552 L 92.6686 -51.25141" />
    <path d="M 75.28555 -66.69883 L 75.28555 -52.26473" />
    <path d="M 92.6686 -4.92407 L 92.6686 13.61325" />
    <path d="M 153.07803 -83.7731 L 135.05561 -78.37689 L 135.05561 -48.78054" />
    <path d="M 108.81603 -50.31013 L 108.81603 -70.52033 L 92.6686 -65.68552" />
    <path d="M 167.35047 -46.89797 L 167.35047 -53.00107 L 153.07803 -83.7731" />
    <path d="M 208.02102 -0.96183 L 152.21226 -4.2151" />
    <path d="M 99.56213 11.54922 L 208.02102 17.87163 L 208.02102 -0.96183 A 5 0.66057 180 0 0 214.47817 -1.2621 L 214.61393 -1.29952 L 226.72451 -4.92563 L 226.94141 -5.00347 A 5 0.66057 180 0 0 227.15002 -5.19229 L 227.15002 13.64117" />
    <path d="M 30.45556 -69.31211 L 47.83862 -68.2988 L 47.83862 -53.86469" />
    <path d="M 30.45556 -69.31211 L 30.45556 -54.87801" />
    <path d="M -65.98241 17.13185 L -91.23484 24.69285" />
    <path d="M 90.86498 -87.39969 L 72.84257 -82.00348 L 90.22562 -80.99017 L 90.22562 -71.17214" />
    <path d="M 72.84257 -82.00348 L 72.84257 -52.40714" />
    <path d="M 46.60299 -74.14692 L 30.45556 -69.31211" />
    <path d="M 91.43298 -71.53364 L 108.81603 -70.52033" />
    <path d="M 91.43298 -71.53364 L 75.28555 -66.69883" />
    <path d="M 135.69497 -84.78641 L 153.07803 -83.7731" />
    <path d="M 117.67255 -79.3902 L 135.05561 -78.37689" />
    <path d="M 135.69497 -84.78641 L 117.67255 -79.3902 L 117.67255 -49.79385" />
    <path d="M 227.15002 -5.19229 A 5 0.66057 180 0 0 224.16845 -5.79664 L 167.35047 -9.10874" />
    <path d="M 214.47817 17.57136 L 214.47817 -1.2621" />
    <path d="M 208.02102 17.87163 A 5 0.66057 180 0 0 214.47817 17.57136 L 214.61393 17.53394 L 214.61393 -1.29952" />
    <path d="M 226.94141 13.82998 A 5 0.66057 180 0 0 227.15002 13.64117" />
    <path d="M 226.72451 13.90783 L 226.94141 13.82998 L 226.94141 -5.00347" />
    <path d="M 214.61393 17.53394 L 226.72451 13.90783 L 226.72451 -4.92563" />
    <path d="M 46.60299 -74.14692 L 63.98605 -73.13361 L 47.83862 -68.2988" />
    <path d="M 63.98605 -52.92341 L 63.98605 -73.13361" />
    <path d="M 117.67255 -66.0667 L 108.24804 -86.38638 L 90.22562 -80.99017" />
    <path d="M 90.86498 -87.39969 L 108.24804 -86.38638" />
    <path d="M 86.91528 54.13268 L 86.91528 35.29922" />
    <path d="M 106.04428 31.06877 L 106.04428 49.90222" />
</svg>