<svg version="1.1" xmlns="http://www.w3.org/2000/svg" viewBox="-171.54819939078732 -11.970848760468677 343.09639878157475 24.341497820642907" fill="none" stroke="black" stroke-width="0.6%" vector-effect="non-scaling-stroke">
    <path d="M -168.08358 8.30482 L -4.32236 11.34883 A 5 0.15798 180 0 0 2.35483 11.30117 L 2.52253 11.29278 L 17.73482 10.47582 L 18.01861 10.45812 A 5 0.15798 180 0 0 18.42531 10.39572" />
    <path d="M -170.5482 8.16866 A 5 0.15798 180 0 0 -168.08358 8.30482 L -168.08358 -1.69019 L -4.32236 1.35382 A 5 0.15798 180 0 0 2.35483 1.30616 L 2.52253 1.29777 L 17.73482 0.48081 L 18.01861 0.46312 A 5 0.15798 180 0 0 18.42531 0.40071 A 5 0.15798 180 0 0 15.9607 0.26455 L -53.32342 -1.02331" />
    <path d="M -170.14149 -1.88876 A 5 0.15798 180 0 0 -170.5482 -1.82635 A 5 0.15798 180 0 0 -168.08358 -1.69019" />
    <path d="M -169.8577 -1.90646 L -170.14149 -1.88876" />
    <path d="M -154.64542 -2.72341 L -169.8577 -1.90646" />
    <path d="M -154.47771 -2.73181 L -154.64542 -2.72341" />
    <path d="M -147.80053 -2.77947 A 5 0.15798 180 0 0 -154.47771 -2.73181" />
    <path d="M -64.32342 -1.22778 L -87.79947 -1.66416" />
    <path d="M -98.79947 -1.86863 L -147.80053 -2.77947" />
    <path d="M 18.01861 10.45812 L 18.01861 0.46312" />
    <path d="M 17.73482 10.47582 L 17.73482 0.48081" />
    <path d="M 2.52253 11.29278 L 2.52253 1.29777" />
    <path d="M 2.35483 11.30117 L 2.35483 1.30616" />
    <path d="M -56.02224 10.65418 A 3.25 0.10268 180 0 0 -55.57342 10.60211 L -55.57342 10.39617" />
    <path d="M -62.07342 10.60211 A 3.25 0.10268 180 0 0 -56.02224 10.65418" />
    <path d="M -90.49829 10.01333 A 3.25 0.10268 180 0 0 -90.04947 9.96126 L -90.04947 9.75532" />
    <path d="M -96.54947 9.96126 A 3.25 0.10268 180 0 0 -90.49829 10.01333" />
    <path d="M -88.55901 -0.94513 A 5.5 0.17377 180 0 0 -87.79947 -1.03324 L -87.79947 -2.43255 A 5.5 0.17377 360 0 1 -88.55901 -2.34443 A 5.5 0.17377 360 0 1 -98.79947 -2.43255 A 5.5 0.17377 360 1 1 -87.79947 -2.43255" />
    <path d="M -98.79947 -1.03324 A 5.5 0.17377 180 0 0 -88.55901 -0.94513" />
    <path d="M -54.08296 -0.30428 A 5.5 0.17377 180 0 0 -53.32342 -0.3924 L -53.32342 -1.7917 A 5.5 0.17377 360 0 1 -54.08296 -1.70358 A 5.5 0.17377 360 0 1 -64.32342 -1.7917 A 5.5 0.17377 360 1 1 -53.32342 -1.7917" />
    <path d="M -64.32342 -0.3924 A 5.5 0.17377 180 0 0 -54.08296 -0.30428" />
    <path d="M 18.42531 0.77442 L 147.80053 3.17927 L 147.80053 -6.81574 A 5 0.15798 180 0 0 154.47771 -6.8634 L 154.64542 -6.87179 L 169.8577 -7.68875 L 170.14149 -7.70645 A 5 0.15798 180 0 0 170.5482 -7.76886 L 170.5482 2.22615" />
    <path d="M 170.14149 2.28856 A 5 0.15798 180 0 0 170.5482 2.22615" />
    <path d="M 169.8577 2.30626 L 170.14149 2.28856 L 170.14149 -7.70645" />
    <path d="M 154.64542 3.12321 L 169.8577 2.30626 L 169.8577 -7.68875" />
    <path d="M 154.47771 3.13161 L 154.64542 3.12321 L 154.64542 -6.87179" />
    <path d="M 147.80053 3.17927 A 5 0.15798 180 0 0 154.47771 3.13161 L 154.47771 -6.8634" />
    <path d="M -15.9607 -9.85976 L 147.80053 -6.81574" />
    <path d="M -18.01861 -10.05832 A 5 0.15798 180 0 0 -18.42531 -9.99592 L -18.42531 -0.37462" />
    <path d="M -18.42531 -9.99592 A 5 0.15798 180 0 0 -15.9607 -9.85976" />
    <path d="M -17.73482 -10.07602 L -18.01861 -10.05832" />
    <path d="M -2.52253 -10.89298 L -17.73482 -10.07602" />
    <path d="M -2.35483 -10.90137 L -2.52253 -10.89298" />
    <path d="M 4.32236 -10.94903 A 5 0.15798 180 0 0 -2.35483 -10.90137" />
    <path d="M 168.08358 -7.90501 L 98.79947 -9.19288" />
    <path d="M 87.79947 -9.39735 L 64.32342 -9.83372" />
    <path d="M 53.32342 -10.03819 L 4.32236 -10.94903" />
    <path d="M 170.5482 -7.76886 A 5 0.15798 180 0 0 168.08358 -7.90501" />
    <path d="M 96.10064 2.48461 A 3.25 0.10268 180 0 0 96.54947 2.43255 L 96.54947 2.22661" />
    <path d="M 90.04947 2.43255 A 3.25 0.10268 180 0 0 96.10064 2.48461" />
    <path d="M 61.6246 1.84377 A 3.25 0.10268 180 0 0 62.07342 1.7917 L 62.07342 1.58576" />
    <path d="M 55.57342 1.7917 A 3.25 0.10268 180 0 0 61.6246 1.84377" />
    <path d="M 63.56387 -9.11469 A 5.5 0.17377 180 0 0 64.32342 -9.20281 L 64.32342 -10.60211 A 5.5 0.17377 360 0 1 63.56387 -10.51399 A 5.5 0.17377 360 0 1 53.32342 -10.60211 A 5.5 0.17377 360 1 1 64.32342 -10.60211" />
    <path d="M 53.32342 -9.20281 A 5.5 0.17377 180 0 0 63.56387 -9.11469" />
    <path d="M 98.03992 -8.47385 A 5.5 0.17377 180 0 0 98.79947 -8.56196 L 98.79947 -9.96126 A 5.5 0.17377 360 0 1 98.03992 -9.87315 A 5.5 0.17377 360 0 1 87.79947 -9.96126 A 5.5 0.17377 360 1 1 98.79947 -9.96126" />
    <path d="M 87.79947 -8.56196 A 5.5 0.17377 180 0 0 98.03992 -8.47385" />
    <path d="M -4.32236 11.34883 L -4.32236 1.35382" />
    <path d="M -15.9607 -0.32881 L -15.9607 -9.85976" />
    <path d="M -170.5482 -1.82635 L -170.5482 8.16866" />
    <path d="M 18.42531 0.40071 L 18.42531 10.39572" />
    <path d="M -62.07342 10.60211 L -62.07342 10.27535" />
    <path d="M -96.54947 9.96126 L -96.54947 9.6345" />
    <path d="M -98.79947 -1.03324 L -98.79947 -2.43255" />
    <path d="M -64.32342 -0.3924 L -64.32342 -1.7917" />
    <path d="M 90.04947 2.43255 L 90.04947 2.10578" />
    <path d="M 55.57342 1.7917 L 55.57342 1.46494" />
    <path d="M 53.32342 -9.20281 L 53.32342 -10.60211" />
    <path d="M 87.79947 -8.56196 L 87.79947 -9.96126" />
</svg>