<svg version="1.1" xmlns="http://www.w3.org/2000/svg" viewBox="-110.1188465267831 -82.60221658998523 299.5490423686929 158.9836764042838" fill="none" stroke="black" stroke-width="0.6%" vector-effect="non-scaling-stroke">
    <path d="M -19.2626 49.13938 L 77.47088 53.73558 A 5 0.71254 180 0 0 83.687 53.32699 L 83.79566 53.28499 L 93.28456 49.22925 L 93.44537 49.14275 A 5 0.71254 180 0 0 93.54126 49.00387" />
    <path d="M 77.47088 43.83764 L 1.57805 40.23166 L 14.22991 34.824 L 49.81326 19.61496 L 59.29986 20.0657 L 105.95359 0.12495 L 117.81471 -4.94473 L 117.81471 -49.13373 L 106.63194 -79.34848 L 92.51099 -73.3129 L 92.51099 -33.22626 A 2 0.62614 92.72031 0 1 91.95768 -31.02578 L 91.8784 -30.97629 L 72.58431 -22.7296 L 72.54459 -22.71653 A 2 0.62614 92.72031 0 1 72.48939 -22.71144 A 2 0.62614 92.72031 0 1 71.95172 -24.43881 L 71.95172 -64.52545 L 59.29986 -59.11779 L 59.29986 20.0657" />
    <path d="M -89.40369 35.90875 L -102.7746 35.27344" />
    <path d="M -106.09723 34.45861 A 5 0.71254 180 0 0 -106.19311 34.59749 A 5 0.71254 180 0 0 -102.7746 35.27344" />
    <path d="M -105.93642 34.37211 L -106.09723 34.45861" />
    <path d="M -96.44752 30.31637 L -105.93642 34.37211" />
    <path d="M -96.33886 30.27437 L -96.44752 30.31637" />
    <path d="M -90.12274 29.86578 A 5 0.71254 180 0 0 -96.33886 30.27437" />
    <path d="M 90.12274 38.42998 L 14.22991 34.824" />
    <path d="M -76.75183 30.50109 L -90.12274 29.86578" />
    <path d="M 93.44537 49.14275 L 93.44537 39.24481 A 5 0.71254 180 0 0 93.54126 39.10594 A 5 0.71254 180 0 0 90.12274 38.42998" />
    <path d="M 93.28456 49.22925 L 93.28456 39.33131 L 93.44537 39.24481" />
    <path d="M 83.79566 53.28499 L 83.79566 43.38706 L 93.28456 39.33131" />
    <path d="M 83.687 53.32699 L 83.687 43.42906 L 83.79566 43.38706" />
    <path d="M 77.47088 43.83764 A 5 0.71254 180 0 0 83.687 43.42906" />
    <path d="M -80.65903 75.38146 L 1.57805 40.23166" />
    <path d="M -109.11885 74.02922 L -80.65903 75.38146 L -80.65903 65.48352 L -85.40234 65.25815 L 49.81326 7.46426" />
    <path d="M 49.81326 9.71702 L 49.81326 19.61496" />
    <path d="M 49.81326 9.71702 L -80.65903 65.48352" />
    <path d="M -109.11885 74.02922 L -109.11885 64.13128 L -104.37554 62.1039" />
    <path d="M -104.37554 64.35665 L -109.11885 64.13128" />
    <path d="M -104.37554 64.35665 L -104.37554 54.45872" />
    <path d="M -109.11885 54.23334 L -104.37554 54.45872" />
    <path d="M -109.11885 54.23334 L -109.11885 44.33541 L 21.35345 -11.4311 L 49.81326 -23.5954" />
    <path d="M -109.11885 44.33541 L -80.65903 45.68765" />
    <path d="M -80.65903 55.58559 L -80.65903 45.68765" />
    <path d="M -85.40234 55.36021 L -80.65903 55.58559 L 49.81326 -0.18092 L 49.81326 9.71702" />
    <path d="M -85.40234 65.25815 L -85.40234 55.36021" />
    <path d="M 49.81326 -59.56854 L 59.29986 -59.11779" />
    <path d="M 49.81326 -59.56854 L 49.81326 -10.07885 L -80.65903 45.68765" />
    <path d="M 49.81326 -10.07885 L 49.81326 -0.18092" />
    <path d="M 5.48525 -4.64871 L -7.88566 -5.28401" />
    <path d="M 172.35982 3.28018 L 105.95359 0.12495" />
    <path d="M 85.11295 9.03267 L 172.35982 13.17812 L 172.35982 3.28018 A 5 0.71254 180 0 0 178.57594 2.8716 L 178.6846 2.8296 L 188.1735 -1.22614 L 188.33431 -1.31264 A 5 0.71254 180 0 0 188.43019 -1.45152 L 188.43019 8.44642" />
    <path d="M 11.86684 -61.37153 L 21.35345 -60.92078 L 21.35345 -11.4311" />
    <path d="M 11.86684 -61.37153 L 11.86684 -7.37633" />
    <path d="M 83.02439 -36.66712 L 80.65903 -36.77951" />
    <path d="M 71.95172 -33.05782 L 79.86829 -36.44153 L 79.86829 -50.93672 L 68.68552 -81.15147 L 54.56458 -75.11589 L 54.56458 -61.59935" />
    <path d="M 79.86829 -36.44153 L 80.65903 -36.77951" />
    <path d="M 59.19892 -81.60222 L 45.07797 -75.56664 L 54.56458 -75.11589" />
    <path d="M 24.5187 -66.77919 L 11.86684 -61.37153" />
    <path d="M 44.44538 -33.23002 L 34.00531 -28.76772" />
    <path d="M 44.52466 -33.27952 L 44.44538 -33.23002 L 49.81326 -32.97497" />
    <path d="M 45.07797 -35.47999 A 2 0.62614 92.72031 0 1 44.52466 -33.27952 L 49.81326 -33.02824" />
    <path d="M 45.07797 -75.56664 L 45.07797 -35.47999 L 49.81326 -35.255" />
    <path d="M 62.46512 -64.9762 L 71.95172 -64.52545" />
    <path d="M 62.46512 -64.9762 L 49.81326 -59.56854" />
    <path d="M 97.14534 -79.79923 L 83.02439 -73.76365 L 92.51099 -73.3129" />
    <path d="M 83.02439 -73.76365 L 83.02439 -33.677 L 92.51099 -33.22626" />
    <path d="M 83.02439 -33.677 A 2 0.62614 92.72031 0 1 82.47108 -31.47653 L 91.95768 -31.02578" />
    <path d="M 82.47108 -31.47653 L 82.39179 -31.42703 L 91.8784 -30.97629" />
    <path d="M 82.39179 -31.42703 L 71.95172 -26.96473" />
    <path d="M 97.14534 -79.79923 L 106.63194 -79.34848" />
    <path d="M 72.39662 -22.73852 L 72.58431 -22.7296" />
    <path d="M 72.43492 -22.72174 L 72.54459 -22.71653" />
    <path d="M 188.43019 -1.45152 A 5 0.71254 180 0 0 185.01168 -2.12748 L 117.81471 -5.32028" />
    <path d="M -11.20829 -6.09885 A 5 0.71254 180 0 0 -11.30417 -5.95997 L -11.30417 2.52743" />
    <path d="M -11.30417 -5.95997 A 5 0.71254 180 0 0 -7.88566 -5.28401" />
    <path d="M 4.7662 -10.69167 A 5 0.71254 180 0 0 -1.44992 -10.28309 L -1.55858 -10.24109 L -11.04748 -6.18534 L -11.20829 -6.09885" />
    <path d="M 11.86684 -10.35429 L 4.7662 -10.69167" />
    <path d="M 178.57594 12.76954 L 178.57594 2.8716" />
    <path d="M 172.35982 13.17812 A 5 0.71254 180 0 0 178.57594 12.76954 L 178.6846 12.72754 L 178.6846 2.8296" />
    <path d="M 188.33431 8.58529 A 5 0.71254 180 0 0 188.43019 8.44642" />
    <path d="M 188.1735 8.67179 L 188.33431 8.58529 L 188.33431 -1.31264" />
    <path d="M 178.6846 12.72754 L 188.1735 8.67179 L 188.1735 -1.22614" />
    <path d="M 24.5187 -66.77919 L 34.00531 -66.32844 L 21.35345 -60.92078" />
    <path d="M 34.00531 -26.2418 L 34.00531 -66.32844" />
    <path d="M 34.59818 -24.51952 A 2 0.62614 92.72031 0 1 34.54298 -24.51443 A 2 0.62614 92.72031 0 1 34.00531 -26.2418" />
    <path d="M 34.6379 -24.53259 L 34.59818 -24.51952" />
    <path d="M 49.81326 -31.01885 L 34.6379 -24.53259" />
    <path d="M 59.19892 -81.60222 L 68.68552 -81.15147" />
    <path d="M 34.48851 -24.52473 L 34.59818 -24.51952" />
    <path d="M 34.45021 -24.54151 L 34.6379 -24.53259" />
    <path d="M -102.7746 41.62375 L -102.7746 35.27344" />
    <path d="M 77.47088 53.73558 L 77.47088 43.83764" />
    <path d="M -7.88566 1.06629 L -7.88566 -5.28401" />
    <path d="M -106.19311 34.59749 L -106.19311 43.08489" />
    <path d="M 93.54126 39.10594 L 93.54126 49.00387" />
</svg>