<svg version="1.1" xmlns="http://www.w3.org/2000/svg" viewBox="-110.82453391469281 -87.42058286981971 294.8568507380364 164.3391826153515" fill="none" stroke="black" stroke-width="0.6%" vector-effect="non-scaling-stroke">
    <path d="M -18.91644 49.10182 L 78.44195 53.16691 A 5 0.6705 180 0 0 84.59957 52.76586 L 84.70232 52.72605 L 93.62086 48.88491 L 93.76951 48.8031 A 5 0.6705 180 0 0 93.84692 48.68558" />
    <path d="M 78.44195 43.25724 L 2.05884 40.06795 L 13.95023 34.94642 L 91.24424 1.65653 L 97.18993 -0.90423 L 97.18993 -10.8139" />
    <path d="M -89.51065 36.24456 L -102.96794 35.68267" />
    <path d="M -106.40411 34.92496 A 5 0.6705 180 0 0 -106.48151 35.04248 A 5 0.6705 180 0 0 -102.96794 35.68267" />
    <path d="M -106.25546 34.84315 L -106.40411 34.92496" />
    <path d="M -97.33692 31.00201 L -106.25546 34.84315" />
    <path d="M -97.23416 30.9622 L -97.33692 31.00201" />
    <path d="M -91.07655 30.56115 A 5 0.6705 180 0 0 -97.23416 30.9622" />
    <path d="M 90.33334 38.13572 L 13.95023 34.94642" />
    <path d="M -77.61927 31.12304 L -91.07655 30.56115" />
    <path d="M 93.76951 48.8031 L 93.76951 38.89343 A 5 0.6705 180 0 0 93.84692 38.77591 A 5 0.6705 180 0 0 90.33334 38.13572" />
    <path d="M 93.62086 48.88491 L 93.62086 38.97524 L 93.76951 38.89343" />
    <path d="M 84.70232 52.72605 L 84.70232 42.81638 L 93.62086 38.97524" />
    <path d="M 84.59957 52.76586 L 84.59957 42.85618 L 84.70232 42.81638" />
    <path d="M 78.44195 43.25724 A 5 0.6705 180 0 0 84.59957 42.85618" />
    <path d="M -81.18087 75.9186 L 2.05884 40.06795" />
    <path d="M -109.82453 74.72261 L -81.18087 75.9186 L -81.18087 66.00892 L -85.95481 65.80959 L 92.41599 -11.01324 L 92.41599 -18.66748" />
    <path d="M -81.18087 66.00892 L 97.18993 -10.8139" />
    <path d="M -109.82453 74.72261 L -109.82453 64.81294" />
    <path d="M -105.05059 65.01227 L -109.82453 64.81294" />
    <path d="M -105.05059 65.01227 L -105.05059 55.10259" />
    <path d="M -109.82453 54.90326 L -105.05059 55.10259" />
    <path d="M -109.82453 54.90326 L -109.82453 44.99358 L -81.18087 46.18957 L 97.18993 -30.63326 L 87.64205 -31.03192 L 45.27898 -12.7865 L 45.27898 -27.29888 L 35.73109 -27.69755 L 46.24169 -67.26037 L 59.51386 -72.97659" />
    <path d="M -81.18087 56.09925 L -81.18087 46.18957" />
    <path d="M -85.95481 55.89991 L -81.18087 56.09925 L 97.18993 -20.72358 L 97.18993 -30.63326" />
    <path d="M -85.95481 65.80959 L -85.95481 55.89991" />
    <path d="M -105.05059 62.75684 L -109.82453 64.81294" />
    <path d="M -0.32525 -2.16685 L -13.78254 -2.72874" />
    <path d="M 167.62735 4.84582 L 91.24424 1.65653" />
    <path d="M 70.26896 10.69041 L 167.62735 14.7555 L 167.62735 4.84582 A 5 0.6705 180 0 0 173.78497 4.44477 L 173.88772 4.40497 L 182.80626 0.56382 L 182.95491 0.48201 A 5 0.6705 180 0 0 183.03232 0.36449 L 183.03232 10.27417" />
    <path d="M 92.41599 -11.01324 L 97.18993 -10.8139" />
    <path d="M 179.51874 -0.2757 L 97.18993 -3.71324" />
    <path d="M 183.03232 0.36449 A 5 0.6705 180 0 0 179.51874 -0.2757" />
    <path d="M 35.73109 -17.69602 L -109.82453 44.99358" />
    <path d="M 45.27898 -12.7865 L 35.73109 -13.18516 L 35.73109 -27.69755" />
    <path d="M -8.04876 -7.44921 L -8.15152 -7.4094 L -17.07006 -3.56826 L -17.21871 -3.48645 A 5 0.6705 180 0 0 -17.29611 -3.36893 L -17.29611 5.14236" />
    <path d="M -1.89115 -7.85026 A 5 0.6705 180 0 0 -8.04876 -7.44921" />
    <path d="M 11.56613 -7.28837 L -1.89115 -7.85026" />
    <path d="M -17.29611 -3.36893 A 5 0.6705 180 0 0 -13.78254 -2.72874" />
    <path d="M 173.78497 14.35445 L 173.78497 4.44477" />
    <path d="M 167.62735 14.7555 A 5 0.6705 180 0 0 173.78497 14.35445 L 173.88772 14.31464 L 173.88772 4.40497" />
    <path d="M 182.95491 10.39169 A 5 0.6705 180 0 0 183.03232 10.27417" />
    <path d="M 182.80626 10.4735 L 182.95491 10.39169 L 182.95491 0.48201" />
    <path d="M 173.88772 14.31464 L 182.80626 10.4735 L 182.80626 0.56382" />
    <path d="M 55.78958 -66.86171 L 69.06175 -72.57793 L 59.51386 -72.97659" />
    <path d="M 69.06175 -72.57793 L 69.06175 -32.44373 A 2 0.5892 272.39093 0 0 69.57289 -30.70155 A 2 0.5892 272.39093 0 0 69.5818 -30.70141 L 69.56399 -30.70215" />
    <path d="M 69.5818 -30.70141 L 69.65632 -30.71788 L 69.4911 -30.72477" />
    <path d="M 69.65632 -30.71788 L 87.79069 -38.5282 L 78.2428 -38.92686 L 78.28013 -38.94685 A 2 0.5892 272.39093 0 0 78.83737 -41.16487 L 78.83737 -81.29906 L 90.72876 -86.42058" />
    <path d="M 87.79069 -38.5282 L 87.82802 -38.54819 L 78.28013 -38.94685" />
    <path d="M 87.82802 -38.54819 A 2 0.5892 272.39093 0 0 88.38526 -40.76621 L 78.83737 -41.16487" />
    <path d="M 88.38526 -40.76621 L 88.38526 -80.9004 L 78.83737 -81.29906" />
    <path d="M 88.38526 -80.9004 L 100.27664 -86.02192 L 90.72876 -86.42058" />
    <path d="M 100.27664 -86.02192 L 100.27664 -6.74451 L 97.18993 -5.41509" />
    <path d="M 45.27898 -27.29888 L 55.78958 -66.86171 L 46.24169 -67.26037" />
    <path d="M 69.06175 -34.97266 L 78.2428 -38.92686" />
    <path d="M -102.96794 42.04051 L -102.96794 35.68267" />
    <path d="M 78.44195 53.16691 L 78.44195 43.25724" />
    <path d="M -13.78254 3.62909 L -13.78254 -2.72874" />
    <path d="M -106.48151 35.04248 L -106.48151 43.55377" />
    <path d="M 93.84692 38.77591 L 93.84692 48.68558" />
</svg>