<svg version="1.1" xmlns="http://www.w3.org/2000/svg" viewBox="-258.8889874775819 -81.00640299768608 487.03900693378387 145.91448570927324" fill="none" stroke="black" stroke-width="0.6%" vector-effect="non-scaling-stroke">
    <path d="M 16.58032 45.0842 L 16.58032 35.15842 L 169.52952 -6.9962 L -104.93979 -21.72386 L -257.88899 20.43076 L -171.13061 30.55161 L -103.37573 34.18725 L 16.58032 35.15842" />
    <path d="M 169.52952 2.92958 L 169.52952 -6.9962" />
    <path d="M 16.58032 45.0842 L 169.52952 2.92958" />
    <path d="M -103.37573 44.11303 L -103.37573 34.18725" />
    <path d="M -103.37573 44.11303 L 16.58032 45.0842" />
    <path d="M -171.13061 40.47739 L -103.37573 44.11303" />
    <path d="M -257.88899 30.35654 L -171.13061 40.47739 L -171.13061 30.55161" />
    <path d="M -257.88899 30.35654 L -257.88899 20.43076" />
    <path d="M 48.71615 -13.47888 L 75.28555 -20.80173" />
    <path d="M 100.58196 -27.77372 L 117.65666 -32.47971" />
    <path d="M -118.68177 62.43532 L -118.68177 52.50954 L -114.10728 51.24875" />
    <path d="M -114.10728 52.755 L -118.68177 52.50954" />
    <path d="M -114.10728 52.755 L -114.10728 43.53719" />
    <path d="M -95.80933 53.73684 L -95.80933 44.17428" />
    <path d="M -91.23484 53.9823 L -95.80933 53.73684 L -62.1037 44.44717" />
    <path d="M -91.23484 63.90808 L -91.23484 53.9823" />
    <path d="M -118.68177 62.43532 L -91.23484 63.90808 L -21.80866 44.7734" />
    <path d="M 117.67255 -58.9401 L 108.24804 -79.51548 L 90.22562 -74.54829 L 90.22562 -65.51082" />
    <path d="M 47.83862 -62.86592 L 47.83862 -13.52597" />
    <path d="M 63.98605 -67.31635 L 47.83862 -62.86592" />
    <path d="M 63.98605 -27.11694 L 63.98605 -67.31635" />
    <path d="M 64.74272 -25.34425 A 2 0.80138 93.07147 0 1 64.68626 -25.34233 A 2 0.80138 93.07147 0 1 63.98605 -27.11694" />
    <path d="M 64.79342 -25.35431 L 64.74272 -25.34425" />
    <path d="M 75.28555 -28.24606 L 64.79342 -25.35431" />
    <path d="M 224.16845 1.07909 L 169.52952 -1.85276" />
    <path d="M 135.69497 -78.04271 L 117.67255 -73.07552 L 126.82153 -72.5846 L 126.82153 -32.38519 A 2 0.80138 93.07147 0 1 126.11535 -30.22106 L 126.01416 -30.17752 L 101.38933 -23.39062 L 101.33863 -23.38056 A 2 0.80138 93.07147 0 1 101.28216 -23.37865 A 2 0.80138 93.07147 0 1 100.58196 -25.15325 L 100.58196 -65.35266 L 84.43452 -60.90224 L 84.43452 -11.56228" />
    <path d="M 117.67255 -73.07552 L 117.67255 -32.87611 A 2 0.80138 93.07147 0 1 116.96637 -30.71198 L 126.11535 -30.22106" />
    <path d="M 116.96637 -30.71198 L 116.86518 -30.66844 L 126.01416 -30.17752" />
    <path d="M 116.86518 -30.66844 L 100.58196 -26.18059" />
    <path d="M 91.43298 -65.84358 L 75.28555 -61.39316 L 84.43452 -60.90224" />
    <path d="M 75.28555 -61.39316 L 75.28555 -12.05321" />
    <path d="M 38.68964 -63.35685 L 47.83862 -62.86592" />
    <path d="M 38.68964 -63.35685 L 38.68964 -14.01689" />
    <path d="M -56.79456 44.49015 L -91.23484 53.9823" />
    <path d="M 99.09906 -80.0064 L 108.24804 -79.51548" />
    <path d="M 54.83707 -67.80727 L 63.98605 -67.31635" />
    <path d="M 54.83707 -67.80727 L 38.68964 -63.35685" />
    <path d="M 64.63032 -25.35028 L 64.74272 -25.34425" />
    <path d="M 64.58099 -25.3657 L 64.79342 -25.35431" />
    <path d="M 75.28555 -31.25855 L 63.98605 -28.14427" />
    <path d="M 81.07665 -75.03921 L 90.22562 -74.54829" />
    <path d="M 81.07665 -75.03921 L 81.07665 -62.98925" />
    <path d="M 99.09906 -80.0064 L 81.07665 -75.03921" />
    <path d="M 137.76138 11.68526 L 208.02102 15.45529 L 208.02102 5.52951 A 5 0.60805 180 0 0 214.47817 5.25312 L 214.61393 5.21867 L 226.72451 1.88085 L 226.94141 1.8092 A 5 0.60805 180 0 0 227.15002 1.63539 L 227.15002 11.56117" />
    <path d="M 226.94141 11.73497 A 5 0.60805 180 0 0 227.15002 11.56117" />
    <path d="M 226.72451 11.80663 L 226.94141 11.73497 L 226.94141 1.8092" />
    <path d="M 214.61393 15.14445 L 226.72451 11.80663 L 226.72451 1.88085" />
    <path d="M 214.47817 15.1789 L 214.61393 15.14445 L 214.61393 5.21867" />
    <path d="M 208.02102 15.45529 A 5 0.60805 180 0 0 214.47817 15.1789 L 214.47817 5.25312" />
    <path d="M 227.15002 1.63539 A 5 0.60805 180 0 0 224.16845 1.07909" />
    <path d="M 208.02102 5.52951 L 167.90613 3.377" />
    <path d="M 159.11639 -7.55495 L 159.11639 -46.39252 L 144.84395 -77.55179 L 126.82153 -72.5846" />
    <path d="M 135.69497 -78.04271 L 144.84395 -77.55179" />
    <path d="M 101.1769 -23.40202 L 101.38933 -23.39062" />
    <path d="M 101.22623 -23.38659 L 101.33863 -23.38056" />
    <path d="M 91.43298 -65.84358 L 100.58196 -65.35266" />
    <path d="M 103.06271 34.45727 L 62.94783 32.30476" />
    <path d="M 105.83568 35.18738 A 5 0.60805 180 0 0 106.04428 35.01358 L 106.04428 44.93936" />
    <path d="M 106.04428 35.01358 A 5 0.60805 180 0 0 103.06271 34.45727" />
    <path d="M 105.61877 35.25904 L 105.83568 35.18738" />
    <path d="M 93.5082 38.59686 L 105.61877 35.25904" />
    <path d="M 93.37243 38.6313 L 93.5082 38.59686" />
    <path d="M 86.91528 38.9077 A 5 0.60805 180 0 0 93.37243 38.6313" />
    <path d="M 86.91528 38.9077 L 46.8004 36.75519" />
    <path d="M 16.65565 45.06344 L 86.91528 48.83348 L 86.91528 38.9077" />
    <path d="M 105.83568 45.11316 L 105.83568 35.18738" />
    <path d="M 105.83568 45.11316 A 5 0.60805 180 0 0 106.04428 44.93936" />
    <path d="M 105.61877 45.18482 L 105.61877 35.25904" />
    <path d="M 105.61877 45.18482 L 105.83568 45.11316" />
    <path d="M 93.5082 48.52264 L 93.5082 38.59686" />
    <path d="M 93.5082 48.52264 L 105.61877 45.18482" />
    <path d="M 93.37243 48.55708 L 93.37243 38.6313" />
    <path d="M 93.37243 48.55708 L 93.5082 48.52264" />
    <path d="M 86.91528 48.83348 A 5 0.60805 180 0 0 93.37243 48.55708" />
    <path d="M 117.67255 -32.87611 L 126.82153 -32.38519" />
</svg>