<svg version="1.1" xmlns="http://www.w3.org/2000/svg" viewBox="-258.88898747758196 -201.34918606736616 487.0390069337839 396.9545115721943" fill="none" stroke="black" stroke-width="0.6%" vector-effect="non-scaling-stroke">
    <path d="M 184.13059 -78.79782 L 183.8166 -79.28223" />
    <path d="M 98.43914 -67.46363 L 117.67255 -37.79196 L 117.67255 -5.88133 A 2 0.75776 98.65916 0 1 117.44176 -4.38683 L 108.81603 2.36049" />
    <path d="M 117.67255 -43.89252 L 117.67255 -37.79196" />
    <path d="M 122.299 -47.51147 L 117.67255 -43.89252 L 135.05561 -41.24522 L 135.05561 -3.23403 A 2 0.75776 98.65916 0 1 134.34943 -0.81934 L 134.24824 -0.72538 L 109.62341 18.53695 L 109.57271 18.5729 A 2 0.75776 98.65916 0 1 109.32229 18.63706 A 2 0.75776 98.65916 0 1 108.81603 17.2914 L 108.81603 -20.71979 L 92.6686 -8.08875 L 92.6686 40.84876" />
    <path d="M 122.299 -47.51147 L 105.73931 -73.05836" />
    <path d="M 113.28833 -71.9087 L 126.81365 -51.04298" />
    <path d="M 117.86282 -71.21204 L 129.5494 -53.18297 L 122.299 -47.51147" />
    <path d="M 135.69497 -57.99023 L 129.5494 -53.18297" />
    <path d="M 129.98632 -69.36573 L 137.54239 -57.70888" />
    <path d="M 90.22562 -41.97191 L 72.59147 -69.17638" />
    <path d="M 159.43926 -91.67068 L 164.86279 -108.52255" />
    <path d="M 176.56619 -90.46753 L 164.86279 -108.52255" />
    <path d="M 189.83957 -131.71028 L 176.56619 -90.46753" />
    <path d="M 178.84979 -148.66439 L 189.83957 -131.71028" />
    <path d="M 178.84979 -148.66439 L 184.27332 -165.51627 L 202.8275 -136.89245" />
    <path d="M 197.40397 -120.04058 L 202.8275 -136.89245" />
    <path d="M 197.08997 -120.52498 L 197.40397 -120.04058 L 196.95603 -120.10879" />
    <path d="M 197.08997 -120.52498 L 183.8166 -79.28223" />
    <path d="M 178.70706 -61.94595 L 184.13059 -78.79782" />
    <path d="M 159.43926 -91.67068 L 178.70706 -61.94595 L 159.49146 -64.87233" />
    <path d="M -49.87464 -183.49731 L -44.45111 -200.34919 L 184.27332 -165.51627" />
    <path d="M -38.88485 -166.5432 L -49.87464 -183.49731 L 178.84979 -148.66439" />
    <path d="M -47.1658 -140.81283 L -38.88485 -166.5432 L -11.4355 -162.36288" />
    <path d="M -69.28517 -126.5036 L -63.86164 -143.35547 L 164.86279 -108.52255" />
    <path d="M -50.01736 -96.77887 L -69.28517 -126.5036 L 159.43926 -91.67068" />
    <path d="M 37.35537 -83.47269 L 31.40578 -84.37877" />
    <path d="M 25.09677 -85.33958 L -32.63706 -94.13198" />
    <path d="M -38.94607 -95.0928 L -50.01736 -96.77887" />
    <path d="M 43.77797 -73.56445 L 37.35537 -83.47269" />
    <path d="M 97.75693 -65.34388 L 43.77797 -73.56445" />
    <path d="M 97.75693 -65.34388 L 100.49668 -73.85677" />
    <path d="M 94.10503 -70.97773 L 97.75693 -65.34388" />
    <path d="M 153.18245 -65.83314 L 95.44862 -74.62555" />
    <path d="M 101.96018 -23.86883 L 90.22562 -41.97191 L 90.22562 -22.42266" />
    <path d="M 117.67255 -21.47596 L 101.96018 -23.86883" />
    <path d="M 135.69497 -57.99023 L 153.07803 -55.34293 L 135.05561 -41.24522" />
    <path d="M 167.35047 -33.32461 L 153.07803 -55.34293" />
    <path d="M 72.84257 -50.71977 L 85.83807 -48.74066" />
    <path d="M 80.61446 -56.7992 L 72.84257 -50.71977 L 72.84257 -12.70858 A 2 0.75776 98.65916 0 1 72.13639 -10.29389 L 75.28555 -9.8143" />
    <path d="M 106.06647 -21.13853 L 108.3189 -22.90045" />
    <path d="M -3.12363 -161.09705 L 141.04745 -139.14094" />
    <path d="M 149.35932 -137.87511 L 189.83957 -131.71028" />
    <path d="M 143.2012 -145.83303 A 4.15 1.50694 197.84001 0 1 151.1021 -143.29024" />
    <path d="M -9.28175 -169.05497 A 4.15 1.50694 197.84001 0 1 -1.38085 -166.51218" />
    <path d="M 154.55608 -70.10128 A 3.15 1.14382 197.84001 0 1 160.55315 -68.17121" />
    <path d="M 90.51324 -79.8545 A 3.15 1.14382 197.84001 0 1 96.51031 -77.92443" />
    <path d="M 26.47041 -89.60771 A 3.15 1.14382 197.84001 0 1 32.46747 -87.67764" />
    <path d="M -37.57243 -99.36093 A 3.15 1.14382 197.84001 0 1 -31.57536 -97.43086" />
    <path d="M 116.96637 -3.46664 L 134.34943 -0.81934" />
    <path d="M 117.44176 -4.38683 A 2 0.75776 98.65916 0 1 116.96637 -3.46664 L 116.86518 -3.37268 L 134.24824 -0.72538" />
    <path d="M 120.64683 45.10963 L 152.21226 20.41814 L 167.35047 8.57655 L 167.35047 -33.32461" />
    <path d="M 37.55278 32.45506 L 47.83862 24.40915 L 64.21684 11.59759 A 2 0.75776 98.65916 0 1 63.98605 10.46415 L 63.98605 -27.54704 L 47.83862 -14.91601 L 47.83862 24.40915" />
    <path d="M 64.21684 11.59759 L 75.28555 2.93929" />
    <path d="M 75.28555 28.5891 L 64.99971 36.63501" />
    <path d="M 72.13639 -10.29389 L 72.0352 -10.19993 L 75.28555 -9.70493" />
    <path d="M 72.0352 -10.19993 L 63.98605 -3.90363" />
    <path d="M 46.60299 -30.19434 L 30.45556 -17.56331 L 47.83862 -14.91601" />
    <path d="M 30.45556 -17.56331 L 30.45556 31.37421" />
    <path d="M 139.64399 -133.60963 A 4.15 1.50694 197.84001 0 1 139.49036 -134.3028 L 143.2012 -145.83303" />
    <path d="M 139.49036 -134.3028 A 4.15 1.50694 197.84001 0 1 147.39126 -131.76001 L 151.1021 -143.29024" />
    <path d="M 147.39126 -131.76001 A 4.15 1.50694 197.84001 0 1 139.64399 -133.60963" />
    <path d="M -12.83896 -156.83157 A 4.15 1.50694 197.84001 0 1 -12.99259 -157.52474 L -9.28175 -169.05497" />
    <path d="M -12.99259 -157.52474 A 4.15 1.50694 197.84001 0 1 -5.09169 -154.98195 L -1.38085 -166.51218" />
    <path d="M -5.09169 -154.98195 A 4.15 1.50694 197.84001 0 1 -12.83896 -156.83157" />
    <path d="M 152.53182 -62.92308 A 3.15 1.14382 197.84001 0 1 152.41522 -63.44922 L 154.55608 -70.10128" />
    <path d="M 152.41522 -63.44922 A 3.15 1.14382 197.84001 0 1 158.41228 -61.51915 L 160.55315 -68.17121" />
    <path d="M 158.41228 -61.51915 A 3.15 1.14382 197.84001 0 1 152.53182 -62.92308" />
    <path d="M 88.48898 -72.6763 A 3.15 1.14382 197.84001 0 1 88.37238 -73.20244 L 90.51324 -79.8545" />
    <path d="M 88.37238 -73.20244 A 3.15 1.14382 197.84001 0 1 94.36945 -71.27237 L 96.51031 -77.92443" />
    <path d="M 94.36945 -71.27237 A 3.15 1.14382 197.84001 0 1 88.48898 -72.6763" />
    <path d="M 24.44615 -82.42952 A 3.15 1.14382 197.84001 0 1 24.32954 -82.95566 L 26.47041 -89.60771" />
    <path d="M 24.32954 -82.95566 A 3.15 1.14382 197.84001 0 1 30.32661 -81.02559 L 32.46747 -87.67764" />
    <path d="M 30.32661 -81.02559 A 3.15 1.14382 197.84001 0 1 24.44615 -82.42952" />
    <path d="M -39.59669 -92.18273 A 3.15 1.14382 197.84001 0 1 -39.7133 -92.70887 L -37.57243 -99.36093" />
    <path d="M -39.7133 -92.70887 A 3.15 1.14382 197.84001 0 1 -33.71623 -90.7788 L -31.57536 -97.43086" />
    <path d="M -33.71623 -90.7788 A 3.15 1.14382 197.84001 0 1 -39.59669 -92.18273" />
    <path d="M 116.86518 -3.37268 L 108.81603 2.92362" />
    <path d="M 109.06463 18.45185 L 109.62341 18.53695" />
    <path d="M 109.10233 18.50126 L 109.57271 18.5729" />
    <path d="M 91.43298 -23.36709 L 108.81603 -20.71979" />
    <path d="M 75.28555 -10.73606 L 92.6686 -8.08875" />
    <path d="M 91.43298 -23.36709 L 75.28555 -10.73606 L 75.28555 28.5891 L 75.28555 38.20146" />
    <path d="M 226.94141 18.3585 A 5 1.72574 180 0 0 227.15002 17.86522 L 227.15002 35.69763" />
    <path d="M 227.15002 17.86522 A 5 1.72574 180 0 0 224.16845 16.28634 L 167.35047 7.63341" />
    <path d="M 226.72451 18.56188 L 226.94141 18.3585" />
    <path d="M 214.61393 28.03516 L 226.72451 18.56188" />
    <path d="M 214.47817 28.13292 L 214.61393 28.03516" />
    <path d="M 208.02102 28.91738 A 5 1.72574 180 0 0 214.47817 28.13292" />
    <path d="M 208.02102 28.91738 L 152.21226 20.41814" />
    <path d="M 68.48517 -7.42299 L 63.98605 -8.10817" />
    <path d="M 169.52952 52.55407 L -104.93979 10.75457 L -257.88899 130.3963 L -171.13061 159.12092 L -103.37573 169.43945 L 16.58032 172.1958 L 169.52952 52.55407 Z" />
    <path d="M 169.52952 70.38648 L 169.52952 52.55407" />
    <path d="M 46.60299 -30.19434 L 63.98605 -27.54704" />
    <path d="M -91.23484 194.60532 L -91.23484 187.55083" />
    <path d="M -82.47378 187.75215 L -91.23484 194.60532" />
    <path d="M -118.68177 190.42537 L -118.68177 184.94087" />
    <path d="M 133.13044 35.34455 L 208.02102 46.74979 L 208.02102 28.91738" />
    <path d="M 226.94141 36.19091 L 226.94141 18.3585" />
    <path d="M 226.94141 36.19091 A 5 1.72574 180 0 0 227.15002 35.69763" />
    <path d="M 226.72451 36.39429 L 226.72451 18.56188" />
    <path d="M 226.72451 36.39429 L 226.94141 36.19091" />
    <path d="M 214.61393 45.86757 L 214.61393 28.03516" />
    <path d="M 214.61393 45.86757 L 226.72451 36.39429" />
    <path d="M 214.47817 45.96533 L 214.47817 28.13292" />
    <path d="M 214.47817 45.96533 L 214.61393 45.86757" />
    <path d="M 208.02102 46.74979 A 5 1.72574 180 0 0 214.47817 45.96533" />
    <path d="M -118.68177 190.42537 L -91.23484 194.60532" />
    <path d="M -103.37573 187.27186 L 16.58032 190.02821 L 16.58032 172.1958" />
    <path d="M -171.13061 176.95333 L -103.37573 187.27186 L -103.37573 169.43945" />
    <path d="M -257.88899 148.22871 L -171.13061 176.95333 L -171.13061 159.12092" />
    <path d="M 16.58032 190.02821 L 169.52952 70.38648" />
    <path d="M -257.88899 148.22871 L -257.88899 130.3963" />
    <path d="M 105.83568 130.92367 L 105.83568 120.20983" />
    <path d="M 105.83568 130.92367 A 5 1.72574 180 0 0 106.04428 130.43039" />
    <path d="M 79.98921 140.42776 L 86.91528 141.48255 L 86.91528 135.00997" />
    <path d="M 105.61877 131.12705 L 105.83568 130.92367" />
    <path d="M 93.5082 140.60032 L 105.61877 131.12705 L 105.61877 120.3795" />
    <path d="M 93.37243 140.69809 L 93.5082 140.60032 L 93.5082 129.85278" />
    <path d="M 86.91528 141.48255 A 5 1.72574 180 0 0 93.37243 140.69809 L 93.37243 129.95898" />
    <path d="M 117.67255 -5.88133 L 135.05561 -3.23403" />
    <path d="M 72.84257 -12.70858 L 76.99816 -12.07572" />
    <path d="M 106.04428 120.04665 L 106.04428 130.43039" />
</svg>