<svg version="1.1" xmlns="http://www.w3.org/2000/svg" viewBox="-110.46730529267701 -38.18721524313806 300.53418476042333 67.56171641246023" fill="none" stroke="black" stroke-width="0.6%" vector-effect="non-scaling-stroke">
    <path d="M -42.45236 21.05653 L 81.1981 23.50569 A 5 0.30694 180 0 0 87.38609 23.32599 L 87.49189 23.30783 L 96.70402 21.55519 L 96.85893 21.51784 A 5 0.30694 180 0 0 96.94558 21.46094" />
    <path d="M 81.1981 13.52455 L 5.06317 12.01653 L 17.34601 9.67968 L 97.18446 -5.50986 L 103.32588 -6.67829 L 103.32588 -16.65943" />
    <path d="M 93.48094 11.1877 L 17.34601 9.67968" />
    <path d="M 96.85893 21.51784 L 96.85893 11.5367 A 5 0.30694 180 0 0 96.94558 11.4798 A 5 0.30694 180 0 0 93.48094 11.1877" />
    <path d="M 96.70402 21.55519 L 96.70402 11.57405 L 96.85893 11.5367" />
    <path d="M 87.49189 23.30783 L 87.49189 13.32669 L 96.70402 11.57405" />
    <path d="M 87.38609 23.32599 L 87.38609 13.34485 L 87.49189 13.32669" />
    <path d="M 81.1981 13.52455 A 5 0.30694 180 0 0 87.38609 13.34485" />
    <path d="M -80.91671 28.3745 L 5.06317 12.01653" />
    <path d="M -109.4673 27.80899 L -80.91671 28.3745 L -80.91671 18.39336 L -85.67514 18.29911 L 98.56745 -16.75368 L 98.56745 -25.73526" />
    <path d="M -80.91671 18.39336 L 103.32588 -16.65943" />
    <path d="M -109.4673 27.80899 L -109.4673 17.82785" />
    <path d="M -104.70887 16.92255 L -109.4673 17.82785" />
    <path d="M -104.70887 17.9221 L -109.4673 17.82785" />
    <path d="M -104.70887 17.9221 L -104.70887 7.94096" />
    <path d="M -109.4673 7.84671 L -104.70887 7.94096" />
    <path d="M -109.4673 7.84671 L -109.4673 -2.13443 L -80.91671 -1.56892 L 103.32588 -36.62171 L 74.77529 -37.18721 L -109.4673 -2.13443" />
    <path d="M -80.91671 8.41222 L -80.91671 -1.56892" />
    <path d="M -85.67514 8.31797 L -80.91671 8.41222 L 103.32588 -26.64057 L 103.32588 -36.62171" />
    <path d="M -85.67514 18.29911 L -85.67514 8.31797" />
    <path d="M 173.31939 -4.00184 L 97.18446 -5.50986" />
    <path d="M 49.66894 3.53013 L 173.31939 5.9793 L 173.31939 -4.00184 A 5 0.30694 180 0 0 179.50739 -4.18154 L 179.61318 -4.1997 L 188.82531 -5.95234 L 188.98022 -5.98969 A 5 0.30694 180 0 0 189.06688 -6.04659 L 189.06688 3.93455" />
    <path d="M 98.56745 -16.75368 L 103.32588 -16.65943" />
    <path d="M 185.60223 -6.3387 L 103.32588 -7.96836" />
    <path d="M 189.06688 -6.04659 A 5 0.30694 180 0 0 185.60223 -6.3387" />
    <path d="M 179.50739 5.7996 L 179.50739 -4.18154" />
    <path d="M 173.31939 5.9793 A 5 0.30694 180 0 0 179.50739 5.7996 L 179.61318 5.78144 L 179.61318 -4.1997" />
    <path d="M 188.98022 3.99145 A 5 0.30694 180 0 0 189.06688 3.93455" />
    <path d="M 188.82531 4.0288 L 188.98022 3.99145 L 188.98022 -5.98969" />
    <path d="M 179.61318 5.78144 L 188.82531 4.0288 L 188.82531 -5.95234" />
    <path d="M 81.1981 23.50569 L 81.1981 13.52455" />
    <path d="M 96.94558 11.4798 L 96.94558 21.46094" />
</svg>